<svg id="visual" viewBox="0 0 900 600" width="900" height="600" xmlns="http://www.w3.org/2000/svg" xmlns:xlink="http://www.w3.org/1999/xlink" version="1.1"><g stroke-width="1" stroke-linejoin="bevel"><path d="M480 311L391 212L427 330Z" fill="#00182b" stroke="#00182b"></path><path d="M480 311L535 160L391 212Z" fill="#00182b" stroke="#00182b"></path><path d="M538 403L575 312L480 311Z" fill="#0941b1" stroke="#0941b1"></path><path d="M480 311L580 228L535 160Z" fill="#00357f" stroke="#00357f"></path><path d="M291 405L412 413L427 330Z" fill="#002b5d" stroke="#002b5d"></path><path d="M427 330L538 403L480 311Z" fill="#0941b1" stroke="#0941b1"></path><path d="M575 312L580 228L480 311Z" fill="#00254d" stroke="#00254d"></path><path d="M535 160L472 117L391 212Z" fill="#00306e" stroke="#00306e"></path><path d="M297 171L281 302L391 212Z" fill="#0941b1" stroke="#0941b1"></path><path d="M391 212L281 302L427 330Z" fill="#1b44c2" stroke="#1b44c2"></path><path d="M337 128L297 171L391 212Z" fill="#1b44c2" stroke="#1b44c2"></path><path d="M472 117L337 128L391 212Z" fill="#00101c" stroke="#00101c"></path><path d="M412 413L538 403L427 330Z" fill="#00182b" stroke="#00182b"></path><path d="M281 302L291 405L427 330Z" fill="#00101c" stroke="#00101c"></path><path d="M472 117L365 66L337 128Z" fill="#00101c" stroke="#00101c"></path><path d="M337 128L179 112L297 171Z" fill="#00101c" stroke="#00101c"></path><path d="M502 509L575 421L538 403Z" fill="#0941b1" stroke="#0941b1"></path><path d="M538 403L575 421L575 312Z" fill="#003990" stroke="#003990"></path><path d="M575 312L685 289L580 228Z" fill="#003990" stroke="#003990"></path><path d="M191 228L196 316L281 302Z" fill="#00306e" stroke="#00306e"></path><path d="M281 302L196 316L291 405Z" fill="#1b44c2" stroke="#1b44c2"></path><path d="M191 228L281 302L297 171Z" fill="#00101c" stroke="#00101c"></path><path d="M179 112L191 228L297 171Z" fill="#00101c" stroke="#00101c"></path><path d="M575 421L685 289L575 312Z" fill="#003990" stroke="#003990"></path><path d="M680 178L592 64L535 160Z" fill="#00357f" stroke="#00357f"></path><path d="M416 518L502 509L412 413Z" fill="#00357f" stroke="#00357f"></path><path d="M412 413L502 509L538 403Z" fill="#003da1" stroke="#003da1"></path><path d="M575 421L724 404L685 289Z" fill="#1b44c2" stroke="#1b44c2"></path><path d="M326 514L416 518L412 413Z" fill="#00101c" stroke="#00101c"></path><path d="M680 178L535 160L580 228Z" fill="#00101c" stroke="#00101c"></path><path d="M535 160L592 64L472 117Z" fill="#00101c" stroke="#00101c"></path><path d="M472 117L415 0L365 66Z" fill="#003da1" stroke="#003da1"></path><path d="M685 289L680 178L580 228Z" fill="#00306e" stroke="#00306e"></path><path d="M473 0L415 0L472 117Z" fill="#00254d" stroke="#00254d"></path><path d="M365 66L303 0L337 128Z" fill="#002b5d" stroke="#002b5d"></path><path d="M196 316L218 420L291 405Z" fill="#1b44c2" stroke="#1b44c2"></path><path d="M291 405L326 514L412 413Z" fill="#003990" stroke="#003990"></path><path d="M592 64L473 0L472 117Z" fill="#003da1" stroke="#003da1"></path><path d="M218 420L326 514L291 405Z" fill="#00357f" stroke="#00357f"></path><path d="M680 178L692 125L592 64Z" fill="#00101c" stroke="#00101c"></path><path d="M803 201L692 125L680 178Z" fill="#002b5d" stroke="#002b5d"></path><path d="M415 0L303 0L365 66Z" fill="#00254d" stroke="#00254d"></path><path d="M303 0L179 112L337 128Z" fill="#003da1" stroke="#003da1"></path><path d="M191 228L110 283L196 316Z" fill="#001f3c" stroke="#001f3c"></path><path d="M508 600L582 520L502 509Z" fill="#1b44c2" stroke="#1b44c2"></path><path d="M502 509L582 520L575 421Z" fill="#003da1" stroke="#003da1"></path><path d="M698 530L724 404L575 421Z" fill="#003990" stroke="#003990"></path><path d="M685 289L803 201L680 178Z" fill="#00101c" stroke="#00101c"></path><path d="M196 316L139 429L218 420Z" fill="#1b44c2" stroke="#1b44c2"></path><path d="M67 162L110 283L191 228Z" fill="#00357f" stroke="#00357f"></path><path d="M692 125L627 0L592 64Z" fill="#1b44c2" stroke="#1b44c2"></path><path d="M592 64L627 0L473 0Z" fill="#00182b" stroke="#00182b"></path><path d="M218 420L191 492L326 514Z" fill="#001f3c" stroke="#001f3c"></path><path d="M139 429L191 492L218 420Z" fill="#003990" stroke="#003990"></path><path d="M110 283L139 429L196 316Z" fill="#003da1" stroke="#003da1"></path><path d="M324 600L367 600L326 514Z" fill="#00182b" stroke="#00182b"></path><path d="M326 514L367 600L416 518Z" fill="#0941b1" stroke="#0941b1"></path><path d="M416 518L508 600L502 509Z" fill="#1b44c2" stroke="#1b44c2"></path><path d="M367 600L508 600L416 518Z" fill="#003990" stroke="#003990"></path><path d="M582 520L698 530L575 421Z" fill="#002b5d" stroke="#002b5d"></path><path d="M181 0L128 96L179 112Z" fill="#003990" stroke="#003990"></path><path d="M179 112L67 162L191 228Z" fill="#0941b1" stroke="#0941b1"></path><path d="M186 600L324 600L326 514Z" fill="#1b44c2" stroke="#1b44c2"></path><path d="M508 600L567 600L582 520Z" fill="#003da1" stroke="#003da1"></path><path d="M303 0L181 0L179 112Z" fill="#1b44c2" stroke="#1b44c2"></path><path d="M822 315L803 201L685 289Z" fill="#00254d" stroke="#00254d"></path><path d="M692 125L704 0L627 0Z" fill="#1b44c2" stroke="#1b44c2"></path><path d="M667 600L698 530L582 520Z" fill="#00101c" stroke="#00101c"></path><path d="M724 404L822 315L685 289Z" fill="#00357f" stroke="#00357f"></path><path d="M835 89L704 0L692 125Z" fill="#00254d" stroke="#00254d"></path><path d="M0 101L67 162L128 96Z" fill="#002b5d" stroke="#002b5d"></path><path d="M128 96L67 162L179 112Z" fill="#002b5d" stroke="#002b5d"></path><path d="M0 363L105 489L139 429Z" fill="#00254d" stroke="#00254d"></path><path d="M698 530L783 436L724 404Z" fill="#00101c" stroke="#00101c"></path><path d="M783 436L822 315L724 404Z" fill="#003990" stroke="#003990"></path><path d="M0 363L139 429L110 283Z" fill="#001f3c" stroke="#001f3c"></path><path d="M139 429L105 489L191 492Z" fill="#00182b" stroke="#00182b"></path><path d="M191 492L186 600L326 514Z" fill="#00101c" stroke="#00101c"></path><path d="M698 530L802 484L783 436Z" fill="#003da1" stroke="#003da1"></path><path d="M567 600L667 600L582 520Z" fill="#00254d" stroke="#00254d"></path><path d="M181 0L114 0L128 96Z" fill="#003990" stroke="#003990"></path><path d="M105 489L186 600L191 492Z" fill="#00182b" stroke="#00182b"></path><path d="M810 600L802 484L698 530Z" fill="#003da1" stroke="#003da1"></path><path d="M900 437L900 295L822 315Z" fill="#002b5d" stroke="#002b5d"></path><path d="M0 205L110 283L67 162Z" fill="#003990" stroke="#003990"></path><path d="M0 205L0 261L110 283Z" fill="#00101c" stroke="#00101c"></path><path d="M0 101L0 205L67 162Z" fill="#00254d" stroke="#00254d"></path><path d="M803 201L835 89L692 125Z" fill="#00182b" stroke="#00182b"></path><path d="M900 194L835 89L803 201Z" fill="#003da1" stroke="#003da1"></path><path d="M0 261L0 363L110 283Z" fill="#00306e" stroke="#00306e"></path><path d="M105 489L87 600L186 600Z" fill="#003da1" stroke="#003da1"></path><path d="M114 0L0 101L128 96Z" fill="#00357f" stroke="#00357f"></path><path d="M835 89L816 0L704 0Z" fill="#0941b1" stroke="#0941b1"></path><path d="M900 437L822 315L783 436Z" fill="#001f3c" stroke="#001f3c"></path><path d="M822 315L900 295L803 201Z" fill="#0941b1" stroke="#0941b1"></path><path d="M835 89L900 0L816 0Z" fill="#0941b1" stroke="#0941b1"></path><path d="M900 295L900 194L803 201Z" fill="#00101c" stroke="#00101c"></path><path d="M0 505L87 600L105 489Z" fill="#0941b1" stroke="#0941b1"></path><path d="M0 363L0 505L105 489Z" fill="#003da1" stroke="#003da1"></path><path d="M900 478L900 437L802 484Z" fill="#002b5d" stroke="#002b5d"></path><path d="M802 484L900 437L783 436Z" fill="#00101c" stroke="#00101c"></path><path d="M900 194L900 85L835 89Z" fill="#003da1" stroke="#003da1"></path><path d="M667 600L810 600L698 530Z" fill="#00306e" stroke="#00306e"></path><path d="M114 0L0 0L0 101Z" fill="#00306e" stroke="#00306e"></path><path d="M810 600L900 478L802 484Z" fill="#00101c" stroke="#00101c"></path><path d="M900 85L900 0L835 89Z" fill="#00306e" stroke="#00306e"></path><path d="M0 505L0 600L87 600Z" fill="#002b5d" stroke="#002b5d"></path><path d="M810 600L900 600L900 478Z" fill="#003da1" stroke="#003da1"></path></g></svg>