<svg id="visual" viewBox="0 0 900 600" width="900" height="600" xmlns="http://www.w3.org/2000/svg" xmlns:xlink="http://www.w3.org/1999/xlink" version="1.1"><g stroke-width="1" stroke-linejoin="bevel"><path d="M476 302L520 434L564 303Z" fill="#297ea6" stroke="#297ea6"></path><path d="M520 434L592 387L564 303Z" fill="#246688" stroke="#246688"></path><path d="M476 302L460 463L520 434Z" fill="#112e42" stroke="#112e42"></path><path d="M373 375L424 470L460 463Z" fill="#0c2435" stroke="#0c2435"></path><path d="M476 302L373 375L460 463Z" fill="#0c2435" stroke="#0c2435"></path><path d="M715 317L596 221L564 303Z" fill="#246688" stroke="#246688"></path><path d="M564 303L481 173L476 302Z" fill="#00101c" stroke="#00101c"></path><path d="M520 434L607 516L592 387Z" fill="#112e42" stroke="#112e42"></path><path d="M592 387L715 317L564 303Z" fill="#1d4e6b" stroke="#1d4e6b"></path><path d="M535 600L607 516L520 434Z" fill="#19435d" stroke="#19435d"></path><path d="M535 600L520 434L460 463Z" fill="#1d4e6b" stroke="#1d4e6b"></path><path d="M481 173L366 270L476 302Z" fill="#246688" stroke="#246688"></path><path d="M476 302L366 270L373 375Z" fill="#277297" stroke="#277297"></path><path d="M596 221L481 173L564 303Z" fill="#15384f" stroke="#15384f"></path><path d="M712 466L710 418L592 387Z" fill="#00101c" stroke="#00101c"></path><path d="M710 418L715 317L592 387Z" fill="#0c2435" stroke="#0c2435"></path><path d="M607 516L712 466L592 387Z" fill="#297ea6" stroke="#297ea6"></path><path d="M710 418L810 392L715 317Z" fill="#297ea6" stroke="#297ea6"></path><path d="M366 270L302 328L373 375Z" fill="#297ea6" stroke="#297ea6"></path><path d="M373 375L268 465L424 470Z" fill="#277297" stroke="#277297"></path><path d="M302 328L300 381L373 375Z" fill="#277297" stroke="#277297"></path><path d="M561 107L513 127L596 221Z" fill="#246688" stroke="#246688"></path><path d="M596 221L513 127L481 173Z" fill="#246688" stroke="#246688"></path><path d="M481 173L364 173L366 270Z" fill="#112e42" stroke="#112e42"></path><path d="M366 270L312 207L302 328Z" fill="#1d4e6b" stroke="#1d4e6b"></path><path d="M413 600L460 463L424 470Z" fill="#112e42" stroke="#112e42"></path><path d="M413 600L535 600L460 463Z" fill="#19435d" stroke="#19435d"></path><path d="M607 516L686 600L712 466Z" fill="#0c2435" stroke="#0c2435"></path><path d="M376 101L364 173L481 173Z" fill="#277297" stroke="#277297"></path><path d="M535 600L590 600L607 516Z" fill="#246688" stroke="#246688"></path><path d="M690 105L561 107L596 221Z" fill="#081a28" stroke="#081a28"></path><path d="M513 127L376 101L481 173Z" fill="#0c2435" stroke="#0c2435"></path><path d="M364 173L312 207L366 270Z" fill="#081a28" stroke="#081a28"></path><path d="M268 465L413 600L424 470Z" fill="#246688" stroke="#246688"></path><path d="M715 317L716 183L596 221Z" fill="#00101c" stroke="#00101c"></path><path d="M212 362L268 465L300 381Z" fill="#19435d" stroke="#19435d"></path><path d="M300 381L268 465L373 375Z" fill="#00101c" stroke="#00101c"></path><path d="M212 362L300 381L302 328Z" fill="#0c2435" stroke="#0c2435"></path><path d="M590 600L686 600L607 516Z" fill="#1d4e6b" stroke="#1d4e6b"></path><path d="M712 466L810 392L710 418Z" fill="#00101c" stroke="#00101c"></path><path d="M715 317L830 285L716 183Z" fill="#15384f" stroke="#15384f"></path><path d="M786 528L810 392L712 466Z" fill="#1d4e6b" stroke="#1d4e6b"></path><path d="M434 0L376 101L513 127Z" fill="#112e42" stroke="#112e42"></path><path d="M364 173L295 131L312 207Z" fill="#15384f" stroke="#15384f"></path><path d="M180 181L222 311L312 207Z" fill="#0c2435" stroke="#0c2435"></path><path d="M312 207L222 311L302 328Z" fill="#00101c" stroke="#00101c"></path><path d="M222 311L212 362L302 328Z" fill="#0c2435" stroke="#0c2435"></path><path d="M788 116L690 105L716 183Z" fill="#205a7a" stroke="#205a7a"></path><path d="M716 183L690 105L596 221Z" fill="#15384f" stroke="#15384f"></path><path d="M561 107L481 0L513 127Z" fill="#246688" stroke="#246688"></path><path d="M686 600L786 528L712 466Z" fill="#15384f" stroke="#15384f"></path><path d="M900 328L830 285L810 392Z" fill="#15384f" stroke="#15384f"></path><path d="M810 392L830 285L715 317Z" fill="#15384f" stroke="#15384f"></path><path d="M376 101L295 131L364 173Z" fill="#00101c" stroke="#00101c"></path><path d="M124 404L232 509L268 465Z" fill="#19435d" stroke="#19435d"></path><path d="M268 465L271 600L413 600Z" fill="#1d4e6b" stroke="#1d4e6b"></path><path d="M232 509L271 600L268 465Z" fill="#081a28" stroke="#081a28"></path><path d="M830 285L818 177L716 183Z" fill="#112e42" stroke="#112e42"></path><path d="M686 600L782 600L786 528Z" fill="#277297" stroke="#277297"></path><path d="M900 529L900 378L810 392Z" fill="#1d4e6b" stroke="#1d4e6b"></path><path d="M592 0L481 0L561 107Z" fill="#15384f" stroke="#15384f"></path><path d="M376 101L284 0L295 131Z" fill="#19435d" stroke="#19435d"></path><path d="M818 177L788 116L716 183Z" fill="#297ea6" stroke="#297ea6"></path><path d="M690 105L592 0L561 107Z" fill="#277297" stroke="#277297"></path><path d="M690 0L592 0L690 105Z" fill="#112e42" stroke="#112e42"></path><path d="M481 0L434 0L513 127Z" fill="#246688" stroke="#246688"></path><path d="M900 529L810 392L786 528Z" fill="#297ea6" stroke="#297ea6"></path><path d="M830 285L900 169L818 177Z" fill="#112e42" stroke="#112e42"></path><path d="M900 378L900 328L810 392Z" fill="#00101c" stroke="#00101c"></path><path d="M818 177L900 80L788 116Z" fill="#19435d" stroke="#19435d"></path><path d="M295 131L180 181L312 207Z" fill="#277297" stroke="#277297"></path><path d="M109 277L124 404L212 362Z" fill="#277297" stroke="#277297"></path><path d="M212 362L124 404L268 465Z" fill="#00101c" stroke="#00101c"></path><path d="M138 168L180 181L131 117Z" fill="#19435d" stroke="#19435d"></path><path d="M109 277L212 362L222 311Z" fill="#15384f" stroke="#15384f"></path><path d="M232 509L175 600L271 600Z" fill="#19435d" stroke="#19435d"></path><path d="M790 0L690 0L690 105Z" fill="#0c2435" stroke="#0c2435"></path><path d="M900 600L900 529L786 528Z" fill="#081a28" stroke="#081a28"></path><path d="M180 181L109 277L222 311Z" fill="#00101c" stroke="#00101c"></path><path d="M107 533L175 600L232 509Z" fill="#0c2435" stroke="#0c2435"></path><path d="M900 328L900 169L830 285Z" fill="#15384f" stroke="#15384f"></path><path d="M788 116L790 0L690 105Z" fill="#00101c" stroke="#00101c"></path><path d="M177 73L180 181L295 131Z" fill="#1d4e6b" stroke="#1d4e6b"></path><path d="M180 181L138 168L109 277Z" fill="#081a28" stroke="#081a28"></path><path d="M434 0L284 0L376 101Z" fill="#205a7a" stroke="#205a7a"></path><path d="M0 463L107 533L124 404Z" fill="#297ea6" stroke="#297ea6"></path><path d="M124 404L107 533L232 509Z" fill="#246688" stroke="#246688"></path><path d="M229 0L177 73L295 131Z" fill="#0c2435" stroke="#0c2435"></path><path d="M782 600L900 600L786 528Z" fill="#205a7a" stroke="#205a7a"></path><path d="M900 80L790 0L788 116Z" fill="#205a7a" stroke="#205a7a"></path><path d="M0 317L0 360L109 277Z" fill="#19435d" stroke="#19435d"></path><path d="M177 73L131 117L180 181Z" fill="#0c2435" stroke="#0c2435"></path><path d="M284 0L229 0L295 131Z" fill="#277297" stroke="#277297"></path><path d="M0 70L0 160L131 117Z" fill="#112e42" stroke="#112e42"></path><path d="M900 169L900 80L818 177Z" fill="#19435d" stroke="#19435d"></path><path d="M0 600L97 600L107 533Z" fill="#205a7a" stroke="#205a7a"></path><path d="M107 533L97 600L175 600Z" fill="#00101c" stroke="#00101c"></path><path d="M0 317L109 277L0 160Z" fill="#297ea6" stroke="#297ea6"></path><path d="M109 277L0 360L124 404Z" fill="#0c2435" stroke="#0c2435"></path><path d="M0 160L109 277L138 168Z" fill="#081a28" stroke="#081a28"></path><path d="M900 80L900 0L790 0Z" fill="#205a7a" stroke="#205a7a"></path><path d="M0 360L0 463L124 404Z" fill="#205a7a" stroke="#205a7a"></path><path d="M79 0L131 117L177 73Z" fill="#19435d" stroke="#19435d"></path><path d="M131 117L0 160L138 168Z" fill="#277297" stroke="#277297"></path><path d="M229 0L79 0L177 73Z" fill="#277297" stroke="#277297"></path><path d="M0 463L0 600L107 533Z" fill="#277297" stroke="#277297"></path><path d="M79 0L0 70L131 117Z" fill="#19435d" stroke="#19435d"></path><path d="M79 0L0 0L0 70Z" fill="#1d4e6b" stroke="#1d4e6b"></path></g></svg>